<svg width="500" height="500" viewBox="0 0 500 500" fill="none" xmlns="http://www.w3.org/2000/svg">
<g clip-path="url(#clip0_320_65)">
<rect width="500" height="500" fill="#00BD90"/>
<path fill-rule="evenodd" clip-rule="evenodd" d="M75 427.536V249.093L75 249C75 159.113 142.769 85.0548 230 75.1303V120.529C167.698 130.149 120 184.004 120 249L120 249.095C120.052 320.849 178.235 379 250 379C314.996 379 368.851 331.302 378.471 269H423.87C413.945 356.231 339.887 424 250 424C198.407 424 152.029 401.674 120 366.156V462.584C103.675 452.626 88.5813 440.85 75 427.536ZM270 -0.198761V44.9631C367.252 54.3793 444.621 131.748 454.037 229H499.199C497.114 203.02 490.975 177.484 480.97 153.329C468.406 122.998 449.991 95.4379 426.777 72.2233C403.562 49.0086 376.002 30.5938 345.671 18.0301C321.516 8.02474 295.98 1.8863 270 -0.198761ZM423.87 229C414.692 148.332 350.668 84.3081 270 75.1304V120.529C325.782 129.142 369.858 173.218 378.471 229H423.87ZM250 329C294.183 329 330 293.183 330 249C330 204.817 294.183 169 250 169C205.817 169 170 204.817 170 249C170 293.183 205.817 329 250 329ZM250 299C277.614 299 300 276.614 300 249C300 221.386 277.614 199 250 199C222.386 199 200 221.386 200 249C200 276.614 222.386 299 250 299Z" fill="black"/>
</g>
<defs>
<clipPath id="clip0_320_65">
<rect width="500" height="500" fill="white"/>
</clipPath>
</defs>
</svg>
