<svg width="500" height="500" viewBox="0 0 500 500" fill="none" xmlns="http://www.w3.org/2000/svg">
<rect width="500" height="500" fill="black"/>
<path fill-rule="evenodd" clip-rule="evenodd" d="M119.999 463.583C103.674 453.626 88.5803 441.849 74.9991 428.535V250.185L74.999 250C74.999 160.113 142.768 86.0545 230 76.1303V121.529C167.698 131.149 119.999 185.004 119.999 250C119.999 321.797 178.202 380 249.999 380C314.995 380 368.85 332.302 378.47 270H423.869C413.944 357.231 339.886 425 249.999 425C198.406 425 152.028 402.674 119.999 367.156V463.583ZM270 0.801361V45.9633C367.251 55.3797 444.62 132.748 454.036 230H499.198C497.113 204.02 490.975 178.484 480.969 154.329C468.406 123.998 449.991 96.438 426.776 73.2234C403.561 50.0087 376.002 31.5939 345.67 19.0302C321.515 9.02487 295.979 2.88644 270 0.801361ZM423.869 230C414.691 149.332 350.667 85.3085 270 76.1305V121.529C325.782 130.143 369.857 174.218 378.47 230H423.869ZM250 330C294.183 330 330 294.183 330 250C330 205.817 294.183 170 250 170C205.817 170 170 205.817 170 250C170 294.183 205.817 330 250 330ZM250 300C277.614 300 300 277.614 300 250C300 222.386 277.614 200 250 200C222.385 200 200 222.386 200 250C200 277.614 222.385 300 250 300Z" fill="white"/>
</svg>
