<svg width="500" height="500" viewBox="0 0 500 500" fill="none" xmlns="http://www.w3.org/2000/svg">
<path fill-rule="evenodd" clip-rule="evenodd" d="M500 0H0V500H500V0ZM74.9991 428.535C88.5803 441.849 103.674 453.626 119.999 463.583V367.156C152.028 402.674 198.406 425 249.999 425C339.886 425 413.944 357.231 423.869 270H378.47C368.85 332.302 314.995 380 249.999 380C178.202 380 119.999 321.797 119.999 250C119.999 185.004 167.698 131.149 230 121.529V76.1303C142.768 86.0545 74.999 160.113 74.999 250L74.9991 250.185V428.535ZM270 45.9633V0.801361C295.979 2.88644 321.515 9.02487 345.67 19.0302C376.002 31.5939 403.561 50.0087 426.776 73.2234C449.991 96.438 468.406 123.998 480.969 154.329C490.975 178.484 497.113 204.02 499.198 230H454.036C444.62 132.748 367.251 55.3797 270 45.9633ZM270 76.1305C350.667 85.3085 414.691 149.332 423.869 230H378.47C369.857 174.218 325.782 130.143 270 121.529V76.1305ZM330 250C330 294.183 294.183 330 250 330C205.817 330 170 294.183 170 250C170 205.817 205.817 170 250 170C294.183 170 330 205.817 330 250ZM300 250C300 277.614 277.614 300 250 300C222.385 300 200 277.614 200 250C200 222.386 222.385 200 250 200C277.614 200 300 222.386 300 250Z" fill="#1E1E1E"/>
</svg>
