<svg width="792" height="792" viewBox="0 0 792 792" fill="none" xmlns="http://www.w3.org/2000/svg">
<g clip-path="url(#clip0_333_681)">
<path d="M264.72 48H240V72.72H264.72V48Z" fill="black"/>
<path d="M312.72 48H288V72.72H312.72V48Z" fill="black"/>
<path d="M384.72 48H360V72.72H384.72V48Z" fill="black"/>
<path d="M408.72 48H384V72.72H408.72V48Z" fill="black"/>
<path d="M480.72 48H456V72.72H480.72V48Z" fill="black"/>
<path d="M312.72 72H288V96.72H312.72V72Z" fill="black"/>
<path d="M360.72 72H336V96.72H360.72V72Z" fill="black"/>
<path d="M384.72 72H360V96.72H384.72V72Z" fill="black"/>
<path d="M408.72 72H384V96.72H408.72V72Z" fill="black"/>
<path d="M456.72 72H432V96.72H456.72V72Z" fill="black"/>
<path d="M480.72 72H456V96.72H480.72V72Z" fill="black"/>
<path d="M552.72 72H528V96.72H552.72V72Z" fill="black"/>
<path d="M312.72 96H288V120.72H312.72V96Z" fill="black"/>
<path d="M360.72 96H336V120.72H360.72V96Z" fill="black"/>
<path d="M384.72 96H360V120.72H384.72V96Z" fill="black"/>
<path d="M408.72 96H384V120.72H408.72V96Z" fill="black"/>
<path d="M432.72 96H408V120.72H432.72V96Z" fill="black"/>
<path d="M456.72 96H432V120.72H456.72V96Z" fill="black"/>
<path d="M288.72 120H264V144.72H288.72V120Z" fill="black"/>
<path d="M312.72 120H288V144.72H312.72V120Z" fill="black"/>
<path d="M384.72 120H360V144.72H384.72V120Z" fill="black"/>
<path d="M408.72 120H384V144.72H408.72V120Z" fill="black"/>
<path d="M456.72 120H432V144.72H456.72V120Z" fill="black"/>
<path d="M480.72 120H456V144.72H480.72V120Z" fill="black"/>
<path d="M264.72 144H240V168.72H264.72V144Z" fill="black"/>
<path d="M288.72 144H264V168.72H288.72V144Z" fill="black"/>
<path d="M360.72 144H336V168.72H360.72V144Z" fill="black"/>
<path d="M384.72 144H360V168.72H384.72V144Z" fill="black"/>
<path d="M408.72 144H384V168.72H408.72V144Z" fill="black"/>
<path d="M432.72 144H408V168.72H432.72V144Z" fill="black"/>
<path d="M480.72 144H456V168.72H480.72V144Z" fill="black"/>
<path d="M528.72 144H504V168.72H528.72V144Z" fill="black"/>
<path d="M552.72 144H528V168.72H552.72V144Z" fill="black"/>
<path d="M264.72 168H240V192.72H264.72V168Z" fill="black"/>
<path d="M456.72 168H432V192.72H456.72V168Z" fill="black"/>
<path d="M480.72 168H456V192.72H480.72V168Z" fill="black"/>
<path d="M264.72 192H240V216.72H264.72V192Z" fill="black"/>
<path d="M312.72 192H288V216.72H312.72V192Z" fill="black"/>
<path d="M360.72 192H336V216.72H360.72V192Z" fill="black"/>
<path d="M408.72 192H384V216.72H408.72V192Z" fill="black"/>
<path d="M456.72 192H432V216.72H456.72V192Z" fill="black"/>
<path d="M504.72 192H480V216.72H504.72V192Z" fill="black"/>
<path d="M552.72 192H528V216.72H552.72V192Z" fill="black"/>
<path d="M288.72 216H264V240.72H288.72V216Z" fill="black"/>
<path d="M336.72 216H312V240.72H336.72V216Z" fill="black"/>
<path d="M360.72 216H336V240.72H360.72V216Z" fill="black"/>
<path d="M432.72 216H408V240.72H432.72V216Z" fill="black"/>
<path d="M480.72 216H456V240.72H480.72V216Z" fill="black"/>
<path d="M504.72 216H480V240.72H504.72V216Z" fill="black"/>
<path d="M528.72 216H504V240.72H528.72V216Z" fill="black"/>
<path d="M96.72 240H72V264.72H96.72V240Z" fill="black"/>
<path d="M120.72 240H96V264.72H120.72V240Z" fill="black"/>
<path d="M144.72 240H120V264.72H144.72V240Z" fill="black"/>
<path d="M168.72 240H144V264.72H168.72V240Z" fill="black"/>
<path d="M192.72 240H168V264.72H192.72V240Z" fill="black"/>
<path d="M216.72 240H192V264.72H216.72V240Z" fill="black"/>
<path d="M240.72 240H216V264.72H240.72V240Z" fill="black"/>
<path d="M288.72 240H264V264.72H288.72V240Z" fill="black"/>
<path d="M312.72 240H288V264.72H312.72V240Z" fill="black"/>
<path d="M336.72 240H312V264.72H336.72V240Z" fill="black"/>
<path d="M360.72 240H336V264.72H360.72V240Z" fill="black"/>
<path d="M432.72 240H408V264.72H432.72V240Z" fill="black"/>
<path d="M456.72 240H432V264.72H456.72V240Z" fill="black"/>
<path d="M624.72 240H600V264.72H624.72V240Z" fill="black"/>
<path d="M648.72 240H624V264.72H648.72V240Z" fill="black"/>
<path d="M744.72 240H720V264.72H744.72V240Z" fill="black"/>
<path d="M144.72 264H120V288.72H144.72V264Z" fill="black"/>
<path d="M168.72 264H144V288.72H168.72V264Z" fill="black"/>
<path d="M192.72 264H168V288.72H192.72V264Z" fill="black"/>
<path d="M264.72 264H240V288.72H264.72V264Z" fill="black"/>
<path d="M288.72 264H264V288.72H288.72V264Z" fill="black"/>
<path d="M312.72 264H288V288.72H312.72V264Z" fill="black"/>
<path d="M336.72 264H312V288.72H336.72V264Z" fill="black"/>
<path d="M408.72 264H384V288.72H408.72V264Z" fill="black"/>
<path d="M456.72 264H432V288.72H456.72V264Z" fill="black"/>
<path d="M504.72 264H480V288.72H504.72V264Z" fill="black"/>
<path d="M552.72 264H528V288.72H552.72V264Z" fill="black"/>
<path d="M576.72 264H552V288.72H576.72V264Z" fill="black"/>
<path d="M624.72 264H600V288.72H624.72V264Z" fill="black"/>
<path d="M672.72 264H648V288.72H672.72V264Z" fill="black"/>
<path d="M696.72 264H672V288.72H696.72V264Z" fill="black"/>
<path d="M744.72 264H720V288.72H744.72V264Z" fill="black"/>
<path d="M120.72 288H96V312.72H120.72V288Z" fill="black"/>
<path d="M144.72 288H120V312.72H144.72V288Z" fill="black"/>
<path d="M192.72 288H168V312.72H192.72V288Z" fill="black"/>
<path d="M216.72 288H192V312.72H216.72V288Z" fill="black"/>
<path d="M240.72 288H216V312.72H240.72V288Z" fill="black"/>
<path d="M360.72 288H336V312.72H360.72V288Z" fill="black"/>
<path d="M528.72 288H504V312.72H528.72V288Z" fill="black"/>
<path d="M576.72 288H552V312.72H576.72V288Z" fill="black"/>
<path d="M600.72 288H576V312.72H600.72V288Z" fill="black"/>
<path d="M696.72 288H672V312.72H696.72V288Z" fill="black"/>
<path d="M72.72 312H48V336.72H72.72V312Z" fill="black"/>
<path d="M168.72 312H144V336.72H168.72V312Z" fill="black"/>
<path d="M240.72 312H216V336.72H240.72V312Z" fill="black"/>
<path d="M336.72 312H312V336.72H336.72V312Z" fill="black"/>
<path d="M360.72 312H336V336.72H360.72V312Z" fill="black"/>
<path d="M384.72 312H360V336.72H384.72V312Z" fill="black"/>
<path d="M504.72 312H480V336.72H504.72V312Z" fill="black"/>
<path d="M528.72 312H504V336.72H528.72V312Z" fill="black"/>
<path d="M552.72 312H528V336.72H552.72V312Z" fill="black"/>
<path d="M576.72 312H552V336.72H576.72V312Z" fill="black"/>
<path d="M600.72 312H576V336.72H600.72V312Z" fill="black"/>
<path d="M624.72 312H600V336.72H624.72V312Z" fill="black"/>
<path d="M672.72 312H648V336.72H672.72V312Z" fill="black"/>
<path d="M720.72 312H696V336.72H720.72V312Z" fill="black"/>
<path d="M96.72 336H72V360.72H96.72V336Z" fill="black"/>
<path d="M144.72 336H120V360.72H144.72V336Z" fill="black"/>
<path d="M168.72 336H144V360.72H168.72V336Z" fill="black"/>
<path d="M216.72 336H192V360.72H216.72V336Z" fill="black"/>
<path d="M336.72 336H312V360.72H336.72V336Z" fill="black"/>
<path d="M408.72 336H384V360.72H408.72V336Z" fill="black"/>
<path d="M432.72 336H408V360.72H432.72V336Z" fill="black"/>
<path d="M456.72 336H432V360.72H456.72V336Z" fill="black"/>
<path d="M480.72 336H456V360.72H480.72V336Z" fill="black"/>
<path d="M528.72 336H504V360.72H528.72V336Z" fill="black"/>
<path d="M552.72 336H528V360.72H552.72V336Z" fill="black"/>
<path d="M576.72 336H552V360.72H576.72V336Z" fill="black"/>
<path d="M624.72 336H600V360.72H624.72V336Z" fill="black"/>
<path d="M696.72 336H672V360.72H696.72V336Z" fill="black"/>
<path d="M720.72 336H696V360.72H720.72V336Z" fill="black"/>
<path d="M744.72 336H720V360.72H744.72V336Z" fill="black"/>
<path d="M72.72 360H48V384.72H72.72V360Z" fill="black"/>
<path d="M96.72 360H72V384.72H96.72V360Z" fill="black"/>
<path d="M120.72 360H96V384.72H120.72V360Z" fill="black"/>
<path d="M144.72 360H120V384.72H144.72V360Z" fill="black"/>
<path d="M168.72 360H144V384.72H168.72V360Z" fill="black"/>
<path d="M264.72 360H240V384.72H264.72V360Z" fill="black"/>
<path d="M336.72 360H312V384.72H336.72V360Z" fill="black"/>
<path d="M408.72 360H384V384.72H408.72V360Z" fill="black"/>
<path d="M432.72 360H408V384.72H432.72V360Z" fill="black"/>
<path d="M456.72 360H432V384.72H456.72V360Z" fill="black"/>
<path d="M504.72 360H480V384.72H504.72V360Z" fill="black"/>
<path d="M528.72 360H504V384.72H528.72V360Z" fill="black"/>
<path d="M552.72 360H528V384.72H552.72V360Z" fill="black"/>
<path d="M576.72 360H552V384.72H576.72V360Z" fill="black"/>
<path d="M600.72 360H576V384.72H600.72V360Z" fill="black"/>
<path d="M648.72 360H624V384.72H648.72V360Z" fill="black"/>
<path d="M672.72 360H648V384.72H672.72V360Z" fill="black"/>
<path d="M720.72 360H696V384.72H720.72V360Z" fill="black"/>
<path d="M744.72 360H720V384.72H744.72V360Z" fill="black"/>
<path d="M216.72 384H192V408.72H216.72V384Z" fill="black"/>
<path d="M288.72 384H264V408.72H288.72V384Z" fill="black"/>
<path d="M312.72 384H288V408.72H312.72V384Z" fill="black"/>
<path d="M408.72 384H384V408.72H408.72V384Z" fill="black"/>
<path d="M456.72 384H432V408.72H456.72V384Z" fill="black"/>
<path d="M504.72 384H480V408.72H504.72V384Z" fill="black"/>
<path d="M576.72 384H552V408.72H576.72V384Z" fill="black"/>
<path d="M624.72 384H600V408.72H624.72V384Z" fill="black"/>
<path d="M720.72 384H696V408.72H720.72V384Z" fill="black"/>
<path d="M96.72 408H72V432.72H96.72V408Z" fill="black"/>
<path d="M144.72 408H120V432.72H144.72V408Z" fill="black"/>
<path d="M168.72 408H144V432.72H168.72V408Z" fill="black"/>
<path d="M240.72 408H216V432.72H240.72V408Z" fill="black"/>
<path d="M264.72 408H240V432.72H264.72V408Z" fill="black"/>
<path d="M312.72 408H288V432.72H312.72V408Z" fill="black"/>
<path d="M408.72 408H384V432.72H408.72V408Z" fill="black"/>
<path d="M456.72 408H432V432.72H456.72V408Z" fill="black"/>
<path d="M648.72 408H624V432.72H648.72V408Z" fill="black"/>
<path d="M672.72 408H648V432.72H672.72V408Z" fill="black"/>
<path d="M744.72 408H720V432.72H744.72V408Z" fill="black"/>
<path d="M72.72 432H48V456.72H72.72V432Z" fill="black"/>
<path d="M120.72 432H96V456.72H120.72V432Z" fill="black"/>
<path d="M144.72 432H120V456.72H144.72V432Z" fill="black"/>
<path d="M168.72 432H144V456.72H168.72V432Z" fill="black"/>
<path d="M192.72 432H168V456.72H192.72V432Z" fill="black"/>
<path d="M216.72 432H192V456.72H216.72V432Z" fill="black"/>
<path d="M288.72 432H264V456.72H288.72V432Z" fill="black"/>
<path d="M408.72 432H384V456.72H408.72V432Z" fill="black"/>
<path d="M432.72 432H408V456.72H432.72V432Z" fill="black"/>
<path d="M504.72 432H480V456.72H504.72V432Z" fill="black"/>
<path d="M552.72 432H528V456.72H552.72V432Z" fill="black"/>
<path d="M576.72 432H552V456.72H576.72V432Z" fill="black"/>
<path d="M648.72 432H624V456.72H648.72V432Z" fill="black"/>
<path d="M672.72 432H648V456.72H672.72V432Z" fill="black"/>
<path d="M696.72 432H672V456.72H696.72V432Z" fill="black"/>
<path d="M720.72 432H696V456.72H720.72V432Z" fill="black"/>
<path d="M72.72 456H48V480.72H72.72V456Z" fill="black"/>
<path d="M144.72 456H120V480.72H144.72V456Z" fill="black"/>
<path d="M288.72 456H264V480.72H288.72V456Z" fill="black"/>
<path d="M312.72 456H288V480.72H312.72V456Z" fill="black"/>
<path d="M360.72 456H336V480.72H360.72V456Z" fill="black"/>
<path d="M384.72 456H360V480.72H384.72V456Z" fill="black"/>
<path d="M432.72 456H408V480.72H432.72V456Z" fill="black"/>
<path d="M456.72 456H432V480.72H456.72V456Z" fill="black"/>
<path d="M480.72 456H456V480.72H480.72V456Z" fill="black"/>
<path d="M648.72 456H624V480.72H648.72V456Z" fill="black"/>
<path d="M720.72 456H696V480.72H720.72V456Z" fill="black"/>
<path d="M744.72 456H720V480.72H744.72V456Z" fill="black"/>
<path d="M72.72 480H48V504.72H72.72V480Z" fill="black"/>
<path d="M168.72 480H144V504.72H168.72V480Z" fill="black"/>
<path d="M216.72 480H192V504.72H216.72V480Z" fill="black"/>
<path d="M264.72 480H240V504.72H264.72V480Z" fill="black"/>
<path d="M288.72 480H264V504.72H288.72V480Z" fill="black"/>
<path d="M312.72 480H288V504.72H312.72V480Z" fill="black"/>
<path d="M360.72 480H336V504.72H360.72V480Z" fill="black"/>
<path d="M384.72 480H360V504.72H384.72V480Z" fill="black"/>
<path d="M480.72 480H456V504.72H480.72V480Z" fill="black"/>
<path d="M552.72 480H528V504.72H552.72V480Z" fill="black"/>
<path d="M600.72 480H576V504.72H600.72V480Z" fill="black"/>
<path d="M624.72 480H600V504.72H624.72V480Z" fill="black"/>
<path d="M648.72 480H624V504.72H648.72V480Z" fill="black"/>
<path d="M672.72 480H648V504.72H672.72V480Z" fill="black"/>
<path d="M696.72 480H672V504.72H696.72V480Z" fill="black"/>
<path d="M72.72 504H48V528.72H72.72V504Z" fill="black"/>
<path d="M120.72 504H96V528.72H120.72V504Z" fill="black"/>
<path d="M144.72 504H120V528.72H144.72V504Z" fill="black"/>
<path d="M168.72 504H144V528.72H168.72V504Z" fill="black"/>
<path d="M264.72 504H240V528.72H264.72V504Z" fill="black"/>
<path d="M288.72 504H264V528.72H288.72V504Z" fill="black"/>
<path d="M312.72 504H288V528.72H312.72V504Z" fill="black"/>
<path d="M336.72 504H312V528.72H336.72V504Z" fill="black"/>
<path d="M408.72 504H384V528.72H408.72V504Z" fill="black"/>
<path d="M456.72 504H432V528.72H456.72V504Z" fill="black"/>
<path d="M600.72 504H576V528.72H600.72V504Z" fill="black"/>
<path d="M624.72 504H600V528.72H624.72V504Z" fill="black"/>
<path d="M672.72 504H648V528.72H672.72V504Z" fill="black"/>
<path d="M72.72 528H48V552.72H72.72V528Z" fill="black"/>
<path d="M120.72 528H96V552.72H120.72V528Z" fill="black"/>
<path d="M192.72 528H168V552.72H192.72V528Z" fill="black"/>
<path d="M216.72 528H192V552.72H216.72V528Z" fill="black"/>
<path d="M288.72 528H264V552.72H288.72V528Z" fill="black"/>
<path d="M360.72 528H336V552.72H360.72V528Z" fill="black"/>
<path d="M384.72 528H360V552.72H384.72V528Z" fill="black"/>
<path d="M408.72 528H384V552.72H408.72V528Z" fill="black"/>
<path d="M480.72 528H456V552.72H480.72V528Z" fill="black"/>
<path d="M552.72 528H528V552.72H552.72V528Z" fill="black"/>
<path d="M576.72 528H552V552.72H576.72V528Z" fill="black"/>
<path d="M600.72 528H576V552.72H600.72V528Z" fill="black"/>
<path d="M624.72 528H600V552.72H624.72V528Z" fill="black"/>
<path d="M648.72 528H624V552.72H648.72V528Z" fill="black"/>
<path d="M696.72 528H672V552.72H696.72V528Z" fill="black"/>
<path d="M264.72 552H240V576.72H264.72V552Z" fill="black"/>
<path d="M288.72 552H264V576.72H288.72V552Z" fill="black"/>
<path d="M408.72 552H384V576.72H408.72V552Z" fill="black"/>
<path d="M456.72 552H432V576.72H456.72V552Z" fill="black"/>
<path d="M480.72 552H456V576.72H480.72V552Z" fill="black"/>
<path d="M528.72 552H504V576.72H528.72V552Z" fill="black"/>
<path d="M552.72 552H528V576.72H552.72V552Z" fill="black"/>
<path d="M648.72 552H624V576.72H648.72V552Z" fill="black"/>
<path d="M672.72 552H648V576.72H672.72V552Z" fill="black"/>
<path d="M744.72 552H720V576.72H744.72V552Z" fill="black"/>
<path d="M264.72 576H240V600.72H264.72V576Z" fill="black"/>
<path d="M384.72 576H360V600.72H384.72V576Z" fill="black"/>
<path d="M432.72 576H408V600.72H432.72V576Z" fill="black"/>
<path d="M456.72 576H432V600.72H456.72V576Z" fill="black"/>
<path d="M480.72 576H456V600.72H480.72V576Z" fill="black"/>
<path d="M528.72 576H504V600.72H528.72V576Z" fill="black"/>
<path d="M552.72 576H528V600.72H552.72V576Z" fill="black"/>
<path d="M600.72 576H576V600.72H600.72V576Z" fill="black"/>
<path d="M648.72 576H624V600.72H648.72V576Z" fill="black"/>
<path d="M264.72 600H240V624.72H264.72V600Z" fill="black"/>
<path d="M288.72 600H264V624.72H288.72V600Z" fill="black"/>
<path d="M360.72 600H336V624.72H360.72V600Z" fill="black"/>
<path d="M384.72 600H360V624.72H384.72V600Z" fill="black"/>
<path d="M408.72 600H384V624.72H408.72V600Z" fill="black"/>
<path d="M432.72 600H408V624.72H432.72V600Z" fill="black"/>
<path d="M456.72 600H432V624.72H456.72V600Z" fill="black"/>
<path d="M480.72 600H456V624.72H480.72V600Z" fill="black"/>
<path d="M504.72 600H480V624.72H504.72V600Z" fill="black"/>
<path d="M528.72 600H504V624.72H528.72V600Z" fill="black"/>
<path d="M552.72 600H528V624.72H552.72V600Z" fill="black"/>
<path d="M648.72 600H624V624.72H648.72V600Z" fill="black"/>
<path d="M672.72 600H648V624.72H672.72V600Z" fill="black"/>
<path d="M720.72 600H696V624.72H720.72V600Z" fill="black"/>
<path d="M744.72 600H720V624.72H744.72V600Z" fill="black"/>
<path d="M264.72 624H240V648.72H264.72V624Z" fill="black"/>
<path d="M336.72 624H312V648.72H336.72V624Z" fill="black"/>
<path d="M384.72 624H360V648.72H384.72V624Z" fill="black"/>
<path d="M432.72 624H408V648.72H432.72V624Z" fill="black"/>
<path d="M456.72 624H432V648.72H456.72V624Z" fill="black"/>
<path d="M552.72 624H528V648.72H552.72V624Z" fill="black"/>
<path d="M576.72 624H552V648.72H576.72V624Z" fill="black"/>
<path d="M600.72 624H576V648.72H600.72V624Z" fill="black"/>
<path d="M624.72 624H600V648.72H624.72V624Z" fill="black"/>
<path d="M648.72 624H624V648.72H648.72V624Z" fill="black"/>
<path d="M672.72 624H648V648.72H672.72V624Z" fill="black"/>
<path d="M696.72 624H672V648.72H696.72V624Z" fill="black"/>
<path d="M744.72 624H720V648.72H744.72V624Z" fill="black"/>
<path d="M264.72 648H240V672.72H264.72V648Z" fill="black"/>
<path d="M312.72 648H288V672.72H312.72V648Z" fill="black"/>
<path d="M336.72 648H312V672.72H336.72V648Z" fill="black"/>
<path d="M384.72 648H360V672.72H384.72V648Z" fill="black"/>
<path d="M432.72 648H408V672.72H432.72V648Z" fill="black"/>
<path d="M504.72 648H480V672.72H504.72V648Z" fill="black"/>
<path d="M528.72 648H504V672.72H528.72V648Z" fill="black"/>
<path d="M552.72 648H528V672.72H552.72V648Z" fill="black"/>
<path d="M576.72 648H552V672.72H576.72V648Z" fill="black"/>
<path d="M624.72 648H600V672.72H624.72V648Z" fill="black"/>
<path d="M672.72 648H648V672.72H672.72V648Z" fill="black"/>
<path d="M696.72 648H672V672.72H696.72V648Z" fill="black"/>
<path d="M264.72 672H240V696.72H264.72V672Z" fill="black"/>
<path d="M288.72 672H264V696.72H288.72V672Z" fill="black"/>
<path d="M360.72 672H336V696.72H360.72V672Z" fill="black"/>
<path d="M384.72 672H360V696.72H384.72V672Z" fill="black"/>
<path d="M408.72 672H384V696.72H408.72V672Z" fill="black"/>
<path d="M432.72 672H408V696.72H432.72V672Z" fill="black"/>
<path d="M456.72 672H432V696.72H456.72V672Z" fill="black"/>
<path d="M480.72 672H456V696.72H480.72V672Z" fill="black"/>
<path d="M504.72 672H480V696.72H504.72V672Z" fill="black"/>
<path d="M528.72 672H504V696.72H528.72V672Z" fill="black"/>
<path d="M552.72 672H528V696.72H552.72V672Z" fill="black"/>
<path d="M576.72 672H552V696.72H576.72V672Z" fill="black"/>
<path d="M600.72 672H576V696.72H600.72V672Z" fill="black"/>
<path d="M624.72 672H600V696.72H624.72V672Z" fill="black"/>
<path d="M648.72 672H624V696.72H648.72V672Z" fill="black"/>
<path d="M672.72 672H648V696.72H672.72V672Z" fill="black"/>
<path d="M696.72 672H672V696.72H696.72V672Z" fill="black"/>
<path d="M720.72 672H696V696.72H720.72V672Z" fill="black"/>
<path d="M264.72 696H240V720.72H264.72V696Z" fill="black"/>
<path d="M288.72 696H264V720.72H288.72V696Z" fill="black"/>
<path d="M312.72 696H288V720.72H312.72V696Z" fill="black"/>
<path d="M360.72 696H336V720.72H360.72V696Z" fill="black"/>
<path d="M408.72 696H384V720.72H408.72V696Z" fill="black"/>
<path d="M432.72 696H408V720.72H432.72V696Z" fill="black"/>
<path d="M600.72 696H576V720.72H600.72V696Z" fill="black"/>
<path d="M648.72 696H624V720.72H648.72V696Z" fill="black"/>
<path d="M672.72 696H648V720.72H672.72V696Z" fill="black"/>
<path d="M720.72 696H696V720.72H720.72V696Z" fill="black"/>
<path d="M312.72 720H288V744.72H312.72V720Z" fill="black"/>
<path d="M432.72 720H408V744.72H432.72V720Z" fill="black"/>
<path d="M480.72 720H456V744.72H480.72V720Z" fill="black"/>
<path d="M528.72 720H504V744.72H528.72V720Z" fill="black"/>
<path d="M552.72 720H528V744.72H552.72V720Z" fill="black"/>
<path d="M576.72 720H552V744.72H576.72V720Z" fill="black"/>
<path d="M600.72 720H576V744.72H600.72V720Z" fill="black"/>
<path d="M648.72 720H624V744.72H648.72V720Z" fill="black"/>
<path d="M696.72 720H672V744.72H696.72V720Z" fill="black"/>
<path d="M48 48V216H216V48H48ZM192 192H72V72H192V192Z" fill="black"/>
<path d="M576 48V216H744V48H576ZM720 192H600V72H720V192Z" fill="black"/>
<path d="M48 576V744H216V576H48ZM192 720H72V600H192V720Z" fill="black"/>
<path d="M168 96H96V168H168V96Z" fill="black"/>
<path d="M696 96H624V168H696V96Z" fill="black"/>
<path d="M168 624H96V696H168V624Z" fill="black"/>
</g>
<defs>
<clipPath id="clip0_333_681">
<rect width="792" height="792" fill="white"/>
</clipPath>
</defs>
</svg>
